<svg xmlns="http://www.w3.org/2000/svg" width="64" height="64" fill="none" viewBox="0 0 64 64"><g clip-path="url(#clip0_2_2)"><circle cx="32" cy="32" r="32" fill="#0D0D0E"/><circle cx="32" cy="32" r="28" fill="#1C1C20"/><path fill="#fff" d="M32.1492 39.5915C33.8015 39.5896 35.3855 38.9323 36.5539 37.764C37.7223 36.5956 38.3795 35.0115 38.3815 33.3592V22.2416C38.3815 20.5887 37.7248 19.0035 36.5561 17.8347C35.3873 16.6659 33.8021 16.0093 32.1492 16.0093C30.4963 16.0093 28.911 16.6659 27.7423 17.8347C26.5735 19.0035 25.9169 20.5887 25.9169 22.2416V33.3592C25.9188 35.0115 26.576 36.5956 27.7444 37.764C28.9128 38.9323 30.4968 39.5896 32.1492 39.5915ZM27.2511 32.4706H29.4807C29.6576 32.4706 29.8273 32.4003 29.9524 32.2752C30.0775 32.1501 30.1478 31.9804 30.1478 31.8035C30.1478 31.6266 30.0775 31.4569 29.9524 31.3318C29.8273 31.2066 29.6576 31.1364 29.4807 31.1364H27.2511V28.4679H29.4807C29.6576 28.4679 29.8273 28.3976 29.9524 28.2725C30.0775 28.1474 30.1478 27.9777 30.1478 27.8007C30.1478 27.6238 30.0775 27.4541 29.9524 27.329C29.8273 27.2039 29.6576 27.1336 29.4807 27.1336H27.2511V24.4651H29.4807C29.6576 24.4651 29.8273 24.3948 29.9524 24.2697C30.0775 24.1446 30.1478 23.9749 30.1478 23.798C30.1478 23.621 30.0775 23.4514 29.9524 23.3262C29.8273 23.2011 29.6576 23.1308 29.4807 23.1308H27.2511V22.2416C27.2511 20.9425 27.7672 19.6967 28.6857 18.7781C29.6043 17.8596 30.8501 17.3435 32.1492 17.3435C33.4482 17.3435 34.694 17.8596 35.6126 18.7781C36.5312 19.6967 37.0472 20.9425 37.0472 22.2416V23.1755C36.9744 23.1471 36.8972 23.132 36.819 23.1308H34.5895C34.4126 23.1308 34.2429 23.2011 34.1178 23.3262C33.9927 23.4514 33.9224 23.621 33.9224 23.798C33.9224 23.9749 33.9927 24.1446 34.1178 24.2697C34.2429 24.3948 34.4126 24.4651 34.5895 24.4651H36.819C36.8972 24.4632 36.9744 24.4477 37.0472 24.4191V27.1796C36.9745 27.1508 36.8972 27.1352 36.819 27.1336H34.5895C34.4126 27.1336 34.2429 27.2039 34.1178 27.329C33.9927 27.4541 33.9224 27.6238 33.9224 27.8007C33.9224 27.9777 33.9927 28.1474 34.1178 28.2725C34.2429 28.3976 34.4126 28.4679 34.5895 28.4679H36.819C36.8972 28.466 36.9744 28.4504 37.0472 28.4218V31.1824C36.9745 31.1535 36.8972 31.1379 36.819 31.1364H34.5895C34.5019 31.1364 34.4151 31.1536 34.3342 31.1871C34.2533 31.2207 34.1797 31.2698 34.1178 31.3318C34.0558 31.3937 34.0067 31.4673 33.9732 31.5482C33.9396 31.6291 33.9224 31.7159 33.9224 31.8035C33.9224 31.8911 33.9396 31.9778 33.9732 32.0588C34.0067 32.1397 34.0558 32.2133 34.1178 32.2752C34.1797 32.3372 34.2533 32.3863 34.3342 32.4198C34.4151 32.4534 34.5019 32.4706 34.5895 32.4706H36.819C36.8972 32.4688 36.9744 32.4532 37.0472 32.4246V33.3586C37.0472 34.6576 36.5312 35.9034 35.6126 36.822C34.694 37.7406 33.4482 38.2566 32.1492 38.2566C30.8501 38.2566 29.6043 37.7406 28.6857 36.822C27.7672 35.9034 27.2511 34.6576 27.2511 33.3586V32.4706Z"/><path fill="#fff" d="M41.2147 33.4533V30.9389C41.2147 30.762 41.1445 30.5923 41.0193 30.4672C40.8942 30.3421 40.7245 30.2718 40.5476 30.2718C40.3707 30.2718 40.201 30.3421 40.0759 30.4672C39.9508 30.5923 39.8805 30.762 39.8805 30.9389V33.4533C39.8805 35.5038 39.0659 37.4703 37.616 38.9202C36.1661 40.3701 34.1996 41.1846 32.1492 41.1846C30.0987 41.1846 28.1322 40.3701 26.6823 38.9202C25.2324 37.4703 24.4178 35.5038 24.4178 33.4533V30.9389C24.4178 30.762 24.3475 30.5923 24.2224 30.4672C24.0973 30.3421 23.9276 30.2718 23.7507 30.2718C23.5738 30.2718 23.4041 30.3421 23.279 30.4672C23.1539 30.5923 23.0836 30.762 23.0836 30.9389V33.4533C23.0877 35.74 23.9551 37.9409 25.5123 39.6155C27.0695 41.29 29.2016 42.3149 31.482 42.4849V46.7785H28.1878C28.0108 46.7785 27.8411 46.8488 27.716 46.9739C27.5909 47.099 27.5206 47.2687 27.5206 47.4456C27.5206 47.6225 27.5909 47.7922 27.716 47.9173C27.8411 48.0424 28.0108 48.1127 28.1878 48.1127H36.1106C36.2875 48.1127 36.4572 48.0424 36.5823 47.9173C36.7074 47.7922 36.7777 47.6225 36.7777 47.4456C36.7777 47.2687 36.7074 47.099 36.5823 46.9739C36.4572 46.8488 36.2875 46.7785 36.1106 46.7785H32.8163V42.4849C35.0967 42.3149 37.2288 41.29 38.786 39.6155C40.3432 37.9409 41.2106 35.74 41.2147 33.4533Z"/><path fill="#fff" d="M21.0288 28.2444C20.9569 28.1944 20.8758 28.1591 20.7901 28.1404C20.7045 28.1218 20.6161 28.1202 20.5298 28.1357C20.4436 28.1513 20.3613 28.1837 20.2875 28.231C20.2138 28.2784 20.1502 28.3398 20.1002 28.4118C19.361 29.5097 18.9661 30.8032 18.9661 32.1267C18.9661 33.4503 19.361 34.7437 20.1002 35.8416C20.2022 35.984 20.3562 36.0805 20.5288 36.1103C20.7014 36.1401 20.8788 36.1009 21.0227 36.001C21.1666 35.9012 21.2654 35.7487 21.2979 35.5766C21.3304 35.4045 21.2939 35.2265 21.1963 35.0811C20.6121 34.2065 20.3003 33.1784 20.3003 32.1267C20.3003 31.075 20.6121 30.0469 21.1963 29.1723C21.297 29.0271 21.336 28.8477 21.3046 28.6737C21.2732 28.4997 21.174 28.3453 21.0288 28.2444Z"/><path fill="#fff" d="M18.4731 38.2613C18.597 38.2613 18.7184 38.2268 18.8238 38.1616C18.9292 38.0965 19.0144 38.0033 19.0698 37.8925C19.1252 37.7817 19.1486 37.6576 19.1375 37.5342C19.1264 37.4108 19.0811 37.293 19.0068 37.1939C17.9124 35.7312 17.321 33.9535 17.321 32.1267C17.321 30.2999 17.9124 28.5223 19.0068 27.0596C19.1129 26.918 19.1585 26.7401 19.1335 26.5649C19.1085 26.3898 19.0149 26.2317 18.8733 26.1256C18.7318 26.0194 18.5539 25.9738 18.3787 25.9989C18.2036 26.0239 18.0455 26.1175 17.9394 26.259C16.6718 27.9529 15.9868 30.0117 15.9868 32.1274C15.9868 34.2431 16.6718 36.3019 17.9394 37.9958C18.0017 38.0784 18.0823 38.1454 18.1749 38.1914C18.2675 38.2375 18.3696 38.2614 18.4731 38.2613Z"/><path fill="#fff" d="M42.9606 36.009C43.0326 36.059 43.1137 36.0944 43.1993 36.113C43.2849 36.1317 43.3734 36.1332 43.4596 36.1177C43.5458 36.1021 43.6282 36.0698 43.7019 36.0224C43.7756 35.975 43.8393 35.9136 43.8892 35.8416C44.6289 34.7439 45.0241 33.4504 45.0241 32.1267C45.0241 30.8031 44.6289 29.5095 43.8892 28.4118C43.7872 28.2695 43.6332 28.173 43.4607 28.1431C43.2881 28.1133 43.1107 28.1526 42.9668 28.2524C42.8229 28.3523 42.724 28.5047 42.6915 28.6768C42.659 28.8489 42.6955 29.0269 42.7932 29.1723C43.3877 30.0424 43.7009 31.074 43.6904 32.1277C43.6961 33.1805 43.3836 34.2104 42.7938 35.0824C42.6934 35.2275 42.6546 35.4065 42.6859 35.5802C42.7171 35.7538 42.8159 35.9081 42.9606 36.009Z"/><path fill="#fff" d="M45.5137 38.2613C45.6173 38.2613 45.7194 38.2372 45.812 38.1908C45.9047 38.1445 45.9853 38.0773 46.0474 37.9944C47.315 36.3005 48 34.2417 48 32.1261C48 30.0104 47.315 27.9516 46.0474 26.2577C45.9412 26.1161 45.7832 26.0226 45.608 25.9975C45.4329 25.9725 45.255 26.0181 45.1134 26.1242C44.9719 26.2304 44.8783 26.3885 44.8533 26.5636C44.8283 26.7388 44.8738 26.9167 44.98 27.0582C46.0743 28.5209 46.6657 30.2986 46.6657 32.1254C46.6657 33.9522 46.0743 35.7298 44.98 37.1925C44.9057 37.2917 44.8604 37.4095 44.8493 37.5329C44.8381 37.6563 44.8616 37.7804 44.917 37.8912C44.9724 38.002 45.0576 38.0952 45.163 38.1603C45.2684 38.2254 45.3898 38.2599 45.5137 38.2599V38.2613Z"/></g><defs><clipPath id="clip0_2_2"><rect width="64" height="64" fill="#fff"/></clipPath></defs></svg>